<?xml version="1.0" encoding="UTF-8"?>
<svg id="Layer_2" data-name="Layer 2" xmlns="http://www.w3.org/2000/svg" viewBox="0 0 124.35 124.35">
  <defs>
    <style>
      .cls-1 {
        fill: #00b281;
      }
    </style>
  </defs>
  <g id="Layer_3" data-name="Layer 3">
    <g>
      <path class="cls-1" d="M73.14,26.5c-2.65-2.65-6.31-4.28-10.36-4.28s-7.71,1.64-10.36,4.29c-2.65,2.64-4.29,6.29-4.29,10.35s1.64,7.71,4.29,10.36c2.65,2.65,6.31,4.29,10.36,4.29s7.71-1.64,10.36-4.28c2.65-2.66,4.29-6.33,4.29-10.37s-1.64-7.71-4.29-10.36h0Z"/>
      <path class="cls-1" d="M117.22,29.29l-22.16-22.16c-4.6-4.6-10.71-7.13-17.22-7.13h-31.32c-6.51,0-12.64,2.53-17.23,7.13L7.14,29.29C2.55,33.88,0,40.01,0,46.51v31.34c0,6.5,2.55,12.62,7.14,17.22l.43.43.79.79.43.43,1.39,1.39.93.94.74.74,1.17,1.16,1.03,1.05,1.34,1.33,1.28,1.28,2.01,2.01,1.62,1.64,3.04,3.02.02.02,2.64,2.65,3.29,3.29c1.4,1.4,2.96,2.62,4.61,3.63.71.43,1.45.83,2.21,1.19.29.14.59.26.88.39h.02c.31.14.6.26.93.39.14.05.28.11.43.15h.02c.39.14.79.28,1.19.37.12.06.26.09.4.12.45.14.91.25,1.37.34.05.02.08.03.12.03.56.12,1.11.22,1.68.29.05,0,.09.02.14.02.59.08,1.17.14,1.77.17.49.03.97.05,1.47.05h31.54c1.65-.02,3.27-.18,4.86-.52,4.57-.96,8.76-3.22,12.14-6.6l.35-.35,21.8-21.8c.49-.49.94-.99,1.39-1.51v-.02c.17-.19.31-.35.46-.56v-.02c1.31-1.64,2.38-3.41,3.21-5.29.14-.29.26-.59.39-.89.11-.26.2-.52.31-.8.08-.25.17-.51.23-.77.09-.25.17-.51.23-.77.05-.12.08-.25.11-.39.11-.39.2-.79.29-1.19,0-.06.02-.11.03-.17.09-.43.15-.86.22-1.3.05-.31.09-.6.11-.91.11-.86.15-1.74.15-2.64v-31.34c0-6.5-2.53-12.62-7.13-17.22ZM16.59,95.68l-.99-.99c9-.82,17.78-1.33,26.31-1.5.65-.02,1.3-.03,1.93-.03.79-.02,1.56-.03,2.33-.03.76-.02,1.51-.02,2.25-.02,1.71,0,3.41,0,5.09.03.48,0,.97.02,1.45.03.32,0,.65.02.97.02,1.22.03,2.42.06,3.63.11.65.02,1.28.05,1.93.08,1.2.05,2.41.09,3.61.17,1.77.09,3.55.2,5.29.34,1.28.09,2.55.19,3.81.31,1.02.09,2.02.19,3.02.29,1.06.11,2.11.23,3.16.35.63.08,1.28.15,1.91.23-.63.28-1.28.56-1.91.83-1.3.57-2.58,1.16-3.84,1.73-3.67-.6-7.42-1.11-11.25-1.51-1.9-.2-3.81-.37-5.74-.52-.51-.05-1.02-.08-1.54-.12-.57-.03-1.14-.08-1.73-.11-.34-.03-.68-.05-1.03-.06-1.13-.06-2.27-.12-3.41-.17-.11-.02-.22-.02-.34-.02-1.28-.06-2.58-.09-3.89-.12-.14-.02-.28-.02-.42,0-.6-.03-1.22-.03-1.84-.05h-.03c-.49,0-.99-.02-1.5-.02h-1.33c-8.42-.06-17.06.17-25.92.74ZM47.11,87.13v-2.69l.2.14.2.11,3.21,1.85v3.87l-.26.15-.25.14-.18.11-1.6-.93v-2.01l-1.31-.76ZM50.67,91.82l1.02.57,1.02-.59,1.68.97c-.63-.02-1.27-.03-1.9-.03-1.13-.02-2.27-.02-3.41-.02l1.59-.91ZM52.65,90.4v-3.86l3.22-1.85.18-.11.22-.14v2.75l-1.31.76v1.93l-1.6.93-.18-.09-.23-.14-.29-.17ZM55.93,89.96l.28-.17.12.06,3.22,1.85v1.2c-1.2-.05-2.41-.08-3.63-.11v-2.84ZM57.24,88.43v-.43l3.27-1.87,3.64,2.08-3.64,2.1-3.27-1.88ZM61.49,91.7l3.21-1.85.2-.11.2-.12v3.5c-1.19-.06-2.39-.12-3.61-.15v-1.26ZM67.13,90.17v-4.44l.22.12.2.12,3.43,1.97v4.14l-.28.17-3.56-2.08ZM73.09,93.55l.2.11c-.73-.06-1.47-.12-2.21-.17l.94-.54,1.06.6ZM73.04,92.07v-4.12l3.43-1.97.2-.12.23-.12v2.92l-1.39.8v2.07l-1.73.97-.2-.11-.25-.14-.29-.17ZM76.55,91.56l.28-.17h.02l.11.08.02.02,3.43,1.98v.91c-1.26-.15-2.55-.29-3.84-.42v-2.39ZM77.92,89.96v-.45l3.5-2.01,3.87,2.24-3.87,2.24-3.5-2.02ZM82.46,85.73l-3.5-2.02v-.43l3.5-2.02,3.87,2.25-3.87,2.22ZM80.88,76.89l-1.39.8v2.05l-1.73.99-.18-.11-.26-.14-.29-.17v-4.12l3.43-1.98.2-.12.23-.12v2.92ZM76.01,74.71l-3.89-2.24,3.89-2.24,3.87,2.24-3.87,2.24ZM74.96,76.19v4.14l-.28.17-3.56-2.08v-4.44l.22.12.22.12,3.41,1.98ZM72.03,81.99l3.86,2.24-3.86,2.24-3.89-2.24,3.89-2.24ZM69.09,82.04l-3.39,1.96-.23-.12v-3.93l3.21-1.85.2-.11.22-.12v4.18ZM64.5,78.55l-3.27-1.88v-.43l3.27-1.88,3.64,2.1-3.64,2.1ZM63.54,79.94v3.93l-.23.12-.23.14-.2.09-1.64-.94-.54-.31v-.2l-.2-.12-.28-.15-.36-.22-.15-.08.25-.15h-.05v-3.86l.28-.17.14.06,3.21,1.85ZM60.25,75.44l-1.3.76v1.93l-1.62.93-.19-.09-.23-.14-.28-.17v-3.86l3.21-1.85.19-.11.22-.14v2.75ZM55.67,73.4l-3.64-2.11,3.64-2.1,3.64,2.1-3.64,2.11ZM54.7,74.79v3.87l-.26.15-.25.14-.17.11-1.62-.93v-2.01l-1.31-.76v-2.68l.2.14.2.11,3.21,1.85ZM51.69,80.94l3.64,2.11-3.64,2.1-3.64-2.1,3.64-2.11ZM50.13,76.61l-3.29,1.9-3.63-2.11,3.63-2.1,3.29,1.9v.42ZM43.68,79.22l.2-.11.23-.12v2.92l-1.39.79v2.07l-1.73.99-.2-.12-.25-.14-.29-.17v-4.12l3.43-1.98ZM42.86,86.05l3.29,1.9v.42l-3.29,1.9-3.63-2.11,3.63-2.1ZM43.84,91.65l3.21-1.85.06-.05.34.2v2.35l-.77.45c-.94,0-1.88.02-2.84.05v-1.14ZM18.08,97.16l-1.05-1.03c9.23-.56,18.16-.76,26.79-.57h.02c.15-.02.31,0,.45,0,.96.02,1.88.05,2.82.08h.25c.48.02.96.03,1.43.06,1.82.06,3.61.14,5.38.25.71.05,1.42.09,2.11.14v.05h.69c6.33.43,12.47,1.1,18.42,2.04-1.74.8-3.47,1.62-5.2,2.45-9.89-1.93-20.37-3.13-30.91-3.46-6.96-.23-14.01-.23-21.22,0ZM19.87,98.97l-1.16-1.17c7.7-.17,15.23-.06,22.65.29,9.2.45,18.58,1.47,27.54,3.16-1.03.49-2.07,1-3.09,1.51-.6.29-1.17.6-1.77.9-13.64-3.09-28.47-4.57-44.18-4.69ZM22.2,101.3l-1.51-1.51c5.28.08,10.42.31,15.43.71,9.07.71,18.07,1.93,26.62,3.84-1.6.83-3.22,1.65-4.83,2.5-11-3.02-22.98-4.81-35.7-5.54ZM25.17,104.26l-1.79-1.79c2.18.14,4.32.32,6.45.52,9.3.93,18.25,2.38,26.63,4.63-1.48.8-2.96,1.6-4.43,2.42-8.39-2.73-17.37-4.61-26.86-5.79ZM29.55,108.64l-2.9-2.9c8.3,1.17,16.2,2.9,23.61,5.28-1.45.82-2.87,1.65-4.29,2.48-5.23-1.96-10.69-3.58-16.4-4.84l-.02-.02ZM40.18,116.94h-.02c-2.39-.88-4.6-2.28-6.45-4.15l-2.08-2.08c4.27,1.1,8.41,2.39,12.37,3.92-1.28.76-2.56,1.54-3.83,2.31ZM90.65,112.79l-.05.05s-.02.02-.02.02c-3.38,1.64-6.71,3.3-9.98,5.03h-.02c-.54.09-1.08.15-1.62.18,4.34-2.36,8.76-4.64,13.27-6.87l-1.59,1.59ZM95.7,107.75c-7.1,3.29-13.99,6.76-20.68,10.35h-1.34c2.45-1.36,4.92-2.7,7.44-4.03,5.43-2.87,10.96-5.65,16.59-8.33l-2.01,2.01ZM100.37,103.07s-.02.02-.02.02c-10.46,4.69-20.47,9.72-30.04,15.01h-1.9c11.06-6.34,22.67-12.37,34.86-17.93l-2.9,2.9ZM104.63,98.83s-.02.02-.02.02c-13.84,5.89-26.94,12.31-39.31,19.26h-2.28c12.56-7.38,25.81-14.27,39.69-20.75.28,0,.28-.18.12-.17-14.86,6.42-28.96,13.39-42.23,20.92h-5.32c17.33-10.14,36.35-19.24,56.97-26.88l-7.61,7.61ZM113.47,89.96c-22.14,7.98-42.14,17.51-60.28,28.14h-.32c18.47-11,38.87-20.85,61.33-29.04-.23.31-.48.6-.73.89ZM114.95,88.06c-7.67,2.75-15.04,5.69-22.17,8.79-14.89,6.48-28.85,13.53-41.94,21.25h-.42c19.46-11.8,40.97-22.34,65.11-30.95-.18.31-.39.62-.59.91ZM115.85,86.61c-25.06,8.66-47.21,19.35-67.3,31.49h-.71c20.48-12.58,43.2-23.55,68.6-32.62-.19.39-.39.77-.59,1.13ZM116.54,85.2v.02c-26.22,9.03-49.47,20.14-70.39,32.88-.26-.02-.52-.02-.79-.03,15.18-9.41,31.6-17.94,49.14-25.67-18.13,7.56-34.92,16.09-50.38,25.54-.37-.03-.73-.09-1.08-.17,21.83-13.13,46.23-25.06,74.12-34.19-.17.56-.39,1.11-.63,1.64ZM118.11,77.84c0,1.57-.2,3.13-.6,4.63-4.43,1.33-7.27,2.22-7.27,2.22-.2.05-.4.11-.59.15-.11.03-.2.06-.31.09-.59.09-11.16,3.78-11.57,3.84-3.02,1.14-6,2.33-8.95,3.55.06,0,.11.02.11.02,0,0-.17.05-.45.12-1.02.42-2.04.83-3.06,1.26v.37l-.02.02-.02-.37c-.76.32-1.5.65-2.25.96-.23-.03-.46-.06-.69-.08v-1.17l3.86-2.08c.09-.17.17-.35.23-.54.06-.11.09-.25.12-.35.11-.25.18-.51.25-.8.03-.14.06-.28.09-.42.09-.49.14-1,.14-1.54v-15.72c0-4.46-1.82-8.5-4.75-11.43-2.95-2.95-6.99-4.77-11.45-4.77h-16.32c-4.46,0-8.52,1.84-11.45,4.77-2.95,2.93-4.77,6.97-4.77,11.43v15.72c0,.25.02.45.03.68v.02s.02.08.02.12c.02.23.05.46.09.66.02.12.03.22.06.31.02.08.03.15.05.2v.03l.02.03v.02l.03.02,3.21,1.85v1.17c-8.61.19-17.47.73-26.59,1.59l-3.76-3.77c-3.43-3.42-5.31-7.98-5.31-12.81v-31.34c0-4.83,1.88-9.38,5.31-12.81l22.16-22.14c3.41-3.43,7.96-5.31,12.81-5.31h31.32c4.84,0,9.38,1.88,12.81,5.31l22.16,22.14c3.41,3.43,5.31,7.98,5.31,12.81v31.34Z"/>
    </g>
  </g>
</svg>