<svg width="22" height="22" viewBox="0 0 22 22" fill="none" xmlns="http://www.w3.org/2000/svg">
<path d="M2.29199 7.50438C2.38738 5.57963 2.67275 4.3796 3.52641 3.52592C4.38009 2.67226 5.58012 2.38689 7.50487 2.2915M19.7087 7.50438C19.6132 5.57963 19.3279 4.3796 18.4743 3.52592C17.6206 2.67226 16.4205 2.38689 14.4958 2.2915M14.4958 19.7082C16.4205 19.6127 17.6206 19.3274 18.4743 18.4738C19.3279 17.6201 19.6132 16.42 19.7087 14.4953M7.50486 19.7082C5.58012 19.6127 4.38009 19.3274 3.52641 18.4738C2.67275 17.6201 2.38738 16.42 2.29199 14.4953" stroke="#030F0F" stroke-width="1.375" stroke-linecap="round" stroke-linejoin="round"/>
<path d="M16.0413 15.5833L15.856 14.8052C15.7028 14.1622 15.2153 13.6515 14.5803 13.4685L12.3747 12.8328L12.3744 11.4875C13.1964 10.9327 13.7494 9.89588 13.7494 8.70833C13.7494 6.93642 12.5181 5.5 10.9994 5.5C9.48057 5.5 8.24936 6.93642 8.24936 8.70833C8.24936 9.89588 8.80239 10.9327 9.6244 11.4875L9.62467 12.8328L7.43279 13.4745C6.81735 13.6547 6.34078 14.1433 6.17606 14.763L5.95801 15.5833" stroke="#030F0F" stroke-width="1.375" stroke-linecap="round" stroke-linejoin="round"/>
</svg>
