<svg width="22" height="22" viewBox="0 0 22 22" fill="none" xmlns="http://www.w3.org/2000/svg">
<path d="M16.5 11C16.5 7.96242 14.0376 5.5 11 5.5C7.96242 5.5 5.5 7.96242 5.5 11C5.5 14.0375 6.41667 16.0417 8.24986 18.3333" stroke="#141B34" stroke-width="1.5" stroke-linecap="round" stroke-linejoin="round"/>
<path d="M13.75 19.25C8.70833 16.0417 8.25 12.5187 8.25 11C8.25 9.48118 9.48118 8.25 11 8.25C12.5188 8.25 13.75 9.48118 13.75 11C13.75 12.5188 14.9812 13.75 16.5 13.75C18.0188 13.75 19.25 12.5188 19.25 11C19.25 6.44363 15.5564 2.75 11 2.75C6.44363 2.75 2.75 6.44363 2.75 11C2.75 11.6301 2.82065 12.2437 2.95444 12.8333" stroke="#141B34" stroke-width="1.5" stroke-linecap="round" stroke-linejoin="round"/>
<path d="M11 11C11.4583 15.5833 16.0417 17.4167 16.0417 17.4167" stroke="#141B34" stroke-width="1.5" stroke-linecap="round" stroke-linejoin="round"/>
</svg>
