<svg width="22" height="22" viewBox="0 0 22 22" fill="none" xmlns="http://www.w3.org/2000/svg">
<path d="M20.1663 9.62496L11.8086 2.58686C11.5822 2.39619 11.2957 2.29163 10.9997 2.29163C10.7037 2.29163 10.4171 2.39619 10.1907 2.58686L1.83301 9.62496" stroke="white" stroke-width="1.5" stroke-linecap="round" stroke-linejoin="round"/>
<path d="M18.7913 4.58337V14.2084C18.7913 16.8011 18.7913 18.0974 17.9859 18.9029C17.1804 19.7084 15.884 19.7084 13.2913 19.7084H8.70801C6.11528 19.7084 4.81892 19.7084 4.01346 18.9029C3.20801 18.0974 3.20801 16.8011 3.20801 14.2084V8.70837" stroke="white" stroke-width="1.5" stroke-linecap="round" stroke-linejoin="round"/>
<path d="M13.75 19.7083V15.125C13.75 13.8287 13.75 13.1805 13.3473 12.7777C12.9445 12.375 12.2964 12.375 11 12.375C9.70365 12.375 9.05546 12.375 8.65273 12.7777C8.25 13.1805 8.25 13.8287 8.25 15.125V19.7083" stroke="white" stroke-width="1.5" stroke-linecap="round" stroke-linejoin="round"/>
</svg>
