<svg width="27" height="27" viewBox="0 0 27 27" fill="none" xmlns="http://www.w3.org/2000/svg">
<path d="M9.50781 20.1344C11.5363 17.949 15.2875 17.8461 17.3378 20.1344M15.5935 13.4229C15.5935 14.6585 14.6184 15.6601 13.4154 15.6601C12.2125 15.6601 11.2374 14.6585 11.2374 13.4229C11.2374 12.1874 12.2125 11.1858 13.4154 11.1858C14.6184 11.1858 15.5935 12.1874 15.5935 13.4229Z" stroke="white" stroke-width="1.5" stroke-linecap="round"/>
<path d="M10.6265 4.47644C7.66854 4.48747 6.0862 4.59089 5.06172 5.56146C3.91504 6.64778 3.91504 8.3962 3.91504 11.8931V17.1916C3.91504 20.6884 3.91504 22.4368 5.06172 23.5231C6.2084 24.6095 8.05395 24.6095 11.7451 24.6095H15.1008C18.7918 24.6095 20.6374 24.6095 21.7841 23.5231C22.9308 22.4368 22.9308 20.6884 22.9308 17.1916V11.8931C22.9308 8.3962 22.9308 6.64778 21.7841 5.56146C20.7596 4.59089 19.1773 4.48747 16.2194 4.47644" stroke="white" stroke-width="1.5" stroke-linecap="round" stroke-linejoin="round"/>
<path d="M10.9304 4.06228C11.0377 3.59829 11.0914 3.36629 11.1944 3.17683C11.4346 2.73546 11.8774 2.4111 12.4061 2.28942C12.633 2.23718 12.8962 2.23718 13.4224 2.23718C13.9486 2.23718 14.2118 2.23718 14.4387 2.28942C14.9674 2.4111 15.4102 2.73545 15.6504 3.17683C15.7534 3.36629 15.8071 3.59829 15.9144 4.06228L16.0075 4.46511C16.1979 5.28803 16.2931 5.69948 16.1495 6.01599C16.0565 6.22098 15.898 6.39651 15.6942 6.52033C15.3795 6.71148 14.9128 6.71148 13.9796 6.71148H12.8652C11.932 6.71148 11.4654 6.71148 11.1506 6.52033C10.9467 6.39651 10.7883 6.22098 10.6953 6.01599C10.5517 5.69948 10.6469 5.28803 10.8372 4.46511L10.9304 4.06228Z" stroke="white" stroke-width="1.5"/>
</svg>
