<svg width="22" height="22" viewBox="0 0 22 22" fill="none" xmlns="http://www.w3.org/2000/svg">
<path d="M14.2087 11C14.2087 12.7719 12.7722 14.2083 11.0003 14.2083C9.22841 14.2083 7.79199 12.7719 7.79199 11C7.79199 9.22804 9.22841 7.79163 11.0003 7.79163C12.7722 7.79163 14.2087 9.22804 14.2087 11Z" stroke="#030F0F" stroke-width="1.5"/>
<path d="M19.0577 8.38934C19.7968 9.66332 20.1663 10.3002 20.1663 11C20.1663 11.6998 19.7968 12.3367 19.0577 13.6107L17.2943 16.6501C16.5582 17.919 16.1901 18.5535 15.5847 18.9018C14.9795 19.25 14.2449 19.25 12.7755 19.25H9.22382C7.75451 19.25 7.01987 19.25 6.41457 18.9018C5.80927 18.5535 5.44118 17.919 4.70503 16.6501L2.94164 13.6107C2.20255 12.3367 1.83301 11.6998 1.83301 11C1.83301 10.3002 2.20255 9.66332 2.94164 8.38933L4.70503 5.34986C5.44118 4.08096 5.80927 3.44652 6.41457 3.09826C7.01987 2.75 7.75451 2.75 9.22382 2.75H12.7755C14.2449 2.75 14.9795 2.75 15.5847 3.09826C16.1901 3.44652 16.5582 4.08097 17.2943 5.34987L19.0577 8.38934Z" stroke="#030F0F" stroke-width="1.5"/>
</svg>
