<svg width="22" height="22" viewBox="0 0 22 22" fill="none" xmlns="http://www.w3.org/2000/svg">
<path d="M5.95801 19.25C8.23618 19.25 10.083 17.4032 10.083 15.125C10.083 12.8468 8.23618 11 5.95801 11C3.67983 11 1.83301 12.8468 1.83301 15.125C1.83301 17.4032 3.67983 19.25 5.95801 19.25Z" stroke="#030F0F" stroke-width="1.5" stroke-linecap="round" stroke-linejoin="round"/>
<path d="M17.417 19.25C18.9358 19.25 20.167 18.0188 20.167 16.5C20.167 14.9812 18.9358 13.75 17.417 13.75C15.8982 13.75 14.667 14.9812 14.667 16.5C14.667 18.0188 15.8982 19.25 17.417 19.25Z" stroke="#030F0F" stroke-width="1.5" stroke-linecap="round" stroke-linejoin="round"/>
<path d="M1.83301 9.62454C2.98204 8.76143 4.4103 8.25 5.95801 8.25C9.75493 8.25 12.833 11.3281 12.833 15.125C12.833 15.213 12.8314 15.3005 12.8281 15.3877C12.8072 15.942 12.7968 16.2192 12.9321 16.3597C13.0673 16.5 13.3172 16.5 13.817 16.5H14.6663" stroke="#030F0F" stroke-width="1.5" stroke-linecap="round" stroke-linejoin="round"/>
<path d="M11.917 8.25L14.7639 8.78379C16.9097 9.1861 17.9827 9.38731 18.6165 10.1511C19.2503 10.9148 19.2503 12.0126 19.2503 14.2083" stroke="#030F0F" stroke-width="1.5" stroke-linecap="round" stroke-linejoin="round"/>
<path d="M18.3337 11H17.417" stroke="#030F0F" stroke-width="1.5" stroke-linecap="round" stroke-linejoin="round"/>
<path d="M11.917 11.4583V8.78816C11.917 8.4313 11.8649 8.07635 11.7624 7.73454L10.542 2.75M3.66699 8.25V2.75" stroke="#030F0F" stroke-width="1.5" stroke-linecap="round" stroke-linejoin="round"/>
<path d="M2.75 2.75H11.9167" stroke="#030F0F" stroke-width="1.5" stroke-linecap="round" stroke-linejoin="round"/>
<path d="M16.5 8.70833V7.33333C16.5 6.32081 17.3208 5.5 18.3333 5.5" stroke="#030F0F" stroke-width="1.5" stroke-linecap="round" stroke-linejoin="round"/>
<path d="M6.41699 8.25V2.75" stroke="#030F0F" stroke-width="1.5" stroke-linecap="round" stroke-linejoin="round"/>
</svg>
