<svg width="21" height="21" viewBox="0 0 21 21" fill="none" xmlns="http://www.w3.org/2000/svg">
<path d="M5.56745 17.9879C7.69627 17.9879 9.42201 16.2622 9.42201 14.1334C9.42201 12.0046 7.69627 10.2788 5.56745 10.2788C3.43864 10.2788 1.71289 12.0046 1.71289 14.1334C1.71289 16.2622 3.43864 17.9879 5.56745 17.9879Z" stroke="white" stroke-width="1.5" stroke-linecap="round" stroke-linejoin="round"/>
<path d="M16.2748 17.9879C17.694 17.9879 18.8445 16.8374 18.8445 15.4182C18.8445 13.999 17.694 12.8485 16.2748 12.8485C14.8556 12.8485 13.7051 13.999 13.7051 15.4182C13.7051 16.8374 14.8556 17.9879 16.2748 17.9879Z" stroke="white" stroke-width="1.5" stroke-linecap="round" stroke-linejoin="round"/>
<path d="M1.71289 8.99353C2.78659 8.187 4.12121 7.70911 5.56745 7.70911C9.11545 7.70911 11.9917 10.5854 11.9917 14.1334C11.9917 14.2156 11.9902 14.2974 11.9871 14.3789C11.9677 14.8968 11.9579 15.1559 12.0843 15.2871C12.2107 15.4182 12.4442 15.4182 12.9112 15.4182H13.7049" stroke="white" stroke-width="1.5" stroke-linecap="round" stroke-linejoin="round"/>
<path d="M11.1357 7.70911L13.796 8.2079C15.8011 8.58384 16.8037 8.77185 17.396 9.48555C17.9883 10.1992 17.9883 11.2251 17.9883 13.2768" stroke="white" stroke-width="1.5" stroke-linecap="round" stroke-linejoin="round"/>
<path d="M17.131 10.2788H16.2744" stroke="white" stroke-width="1.5" stroke-linecap="round" stroke-linejoin="round"/>
<path d="M11.1359 10.7071V8.21199C11.1359 7.87853 11.0872 7.54685 10.9914 7.22745L9.85103 2.5697M3.42676 7.70912V2.5697" stroke="white" stroke-width="1.5" stroke-linecap="round" stroke-linejoin="round"/>
<path d="M2.56934 2.5697H11.135" stroke="white" stroke-width="1.5" stroke-linecap="round" stroke-linejoin="round"/>
<path d="M15.418 8.1374V6.85254C15.418 5.9064 16.1849 5.1394 17.1311 5.1394" stroke="white" stroke-width="1.5" stroke-linecap="round" stroke-linejoin="round"/>
<path d="M5.99609 7.70912V2.5697" stroke="white" stroke-width="1.5" stroke-linecap="round" stroke-linejoin="round"/>
</svg>
