<svg width="32" height="32" viewBox="0 0 32 32" fill="none" xmlns="http://www.w3.org/2000/svg">
<path d="M20.0003 10C20.0003 6.31815 17.0155 3.33337 13.3337 3.33337C9.65177 3.33337 6.66699 6.31815 6.66699 10C6.66699 13.6819 9.65177 16.6667 13.3337 16.6667C17.0155 16.6667 20.0003 13.6819 20.0003 10Z" stroke="#03624D" stroke-width="2" stroke-linecap="round" stroke-linejoin="round"/>
<path d="M28.0003 28.6667L26.0003 26.6667M26.667 23.3334C26.667 21.1242 24.8762 19.3334 22.667 19.3334C20.4578 19.3334 18.667 21.1242 18.667 23.3334C18.667 25.5426 20.4578 27.3334 22.667 27.3334C24.8762 27.3334 26.667 25.5426 26.667 23.3334Z" stroke="#03624D" stroke-width="2" stroke-linecap="round" stroke-linejoin="round"/>
<path d="M4 26C4 20.8453 8.17868 16.6666 13.3333 16.6666C14.7648 16.6666 16.1209 16.9889 17.3333 17.5648" stroke="#03624D" stroke-width="2" stroke-linecap="round" stroke-linejoin="round"/>
</svg>
