<?xml version="1.0" encoding="UTF-8"?>
<svg id="Layer_2" data-name="Layer 2" xmlns="http://www.w3.org/2000/svg" viewBox="0 0 253.87 80">
  <defs>
    <style>
      .cls-1 {
        fill: #03624d;
      }

      .cls-2 {
        fill: #00b281;
      }
    </style>
  </defs>
  <g id="Layer_3" data-name="Layer 3">
    <g>
      <g>
        <path class="cls-1" d="M91.62,61.56c0-2,3-1.43,3-4V19.67c0-2.57-3-2.07-3-4v-.64c0-.93.86-1.43,1.43-1.43h17.3c.57,0,1.43.57,1.43,1.43v.64c0,1.93-3,1.43-3,4v11.58c0,.43.29.72.71.72h12.29c.43,0,.64-.29.64-.72v-11.58c0-2.57-2.93-2.07-2.93-4v-.64c0-.86.79-1.43,1.36-1.43h17.37c.5,0,1.36.57,1.36,1.43v.64c0,1.93-2.93,1.43-2.93,4v37.88c0,2.72,2.93,2,2.93,4v.64c0,.93-.86,1.43-1.36,1.43h-17.37c-.57,0-1.36-.5-1.36-1.43v-.64c0-2,2.93-1.43,2.93-4v-19.51c0-.36-.21-.64-.64-.64h-12.29c-.43,0-.71.29-.71.64v19.51c0,2.72,3,2,3,4v.64c0,1-.86,1.43-1.43,1.43h-17.3c-.57,0-1.43-.5-1.43-1.43v-.64Z"/>
        <path class="cls-1" d="M145.94,61.63c0-2,3-1.43,3-4.07V19.67c0-2.57-3-2.07-3-4v-.64c0-.93.86-1.43,1.43-1.43h32.81c1.07,0,1.72.14,1.93,1.14l1.93,8.51c.14.57.14,1.14-.36,1.36l-.57.36c-1.64.86-4.57-5.86-9.58-5.86h-9.65c-.5,0-.79.43-.79.93v11.08c0,.43.29.64.71.64h6.65c1.14,0,1.86-.5,1.86-2,0-.5.29-.79.71-.93l.93-.36c.5-.14,1,.07,1.14.71l3.14,9.94c.22.57.07.93-.5,1.14l-.86.29c-2.29.93-2.65-4.22-8.36-4.22h-4.72c-.43,0-.71.22-.71.64v20.59c0,2.86,3,2.07,3,4.07v.64c0,1-.86,1.36-1.43,1.36h-17.3c-.57,0-1.43-.5-1.43-1.36v-.64Z"/>
        <path class="cls-1" d="M187.97,61.56c0-2,3-1.43,3-4V19.67c0-2.57-3-2.07-3-4v-.64c0-.93.86-1.43,1.43-1.43h32.81c1.07,0,1.72.14,1.93,1.14l1.93,8.51c.14.57.14,1.14-.36,1.36l-.57.36c-1.64.86-4.57-5.86-9.58-5.86h-9.65c-.5,0-.79.43-.79.93v11.08c0,.43.29.64.71.64h6.65c1.14,0,1.86-.5,1.86-2,0-.5.29-.79.71-.93l.93-.36c.5-.14,1,.07,1.14.71l3.14,9.94c.22.57.07.93-.5,1.14l-.86.29c-2.29.93-2.65-4.22-8.36-4.22h-4.72c-.43,0-.71.22-.71.64v20.23c0,.64.43.93.86.93h9.58c9.51,0,10.65-7.15,13.37-5.86l.72.29c.64.29.86.86.64,1.29l-3.29,8.65c-.5,1.36-1.79,1.14-3.43,1.14h-34.17c-.57,0-1.43-.5-1.43-1.43v-.64Z"/>
        <path class="cls-1" d="M233.71,61.56c0-2,3-1.36,3-4V19.67c0-2.57-3-2.07-3-4v-.64c0-.93.79-1.43,1.43-1.43h17.3c.64,0,1.43.57,1.43,1.43v.64c0,1.93-3,1.43-3,4v37.88c0,2.64,3,2,3,4v.64c0,.93-.79,1.43-1.43,1.43h-17.3c-.64,0-1.43-.5-1.43-1.43v-.64Z"/>
      </g>
      <g>
        <path class="cls-2" d="M133.25,74.73h-3.44v-7.06h3.24c1.41,0,2.18.75,2.18,1.85,0,.78-.4,1.37-1.17,1.6.9.2,1.37.86,1.37,1.71,0,1.09-.77,1.91-2.18,1.91ZM132.97,68.32h-2.3v2.49h2.3c.93,0,1.42-.49,1.42-1.24s-.49-1.25-1.42-1.25ZM133.16,71.44h-2.5v2.63h2.5c.93,0,1.42-.56,1.42-1.31s-.49-1.32-1.42-1.32Z"/>
        <path class="cls-2" d="M138.09,71.75l-2.76-4.09h.99l2.19,3.29,2.19-3.29h.99l-2.76,4.09v2.98h-.85v-2.98Z"/>
        <path class="cls-2" d="M149.79,74.73v-3.23h-4.04v3.23h-.85v-7.06h.85v3.1h4.04v-3.1h.85v7.06h-.85Z"/>
        <path class="cls-2" d="M157.05,74.73l-.7-1.79h-3.39l-.7,1.79h-.88l2.77-7.06h1.03l2.77,7.06h-.88ZM154.65,68.48l-1.48,3.8h2.95l-1.47-3.8Z"/>
        <path class="cls-2" d="M158.22,72.52h.8c.13,1.11.59,1.66,1.95,1.66s1.87-.57,1.87-1.48c0-.55-.3-.95-1.46-1.12l-1.07-.16c-1.43-.22-1.91-.74-1.91-1.74,0-1.25.82-2.11,2.56-2.11s2.56.83,2.56,2.21h-.78c-.12-1.04-.6-1.56-1.8-1.56s-1.69.55-1.69,1.41c0,.58.27.91,1.31,1.07l1.07.16c1.36.2,2.06.72,2.06,1.8,0,1.35-.87,2.17-2.74,2.17s-2.74-.8-2.74-2.31Z"/>
        <path class="cls-2" d="M169.51,74.73v-3.23h-4.04v3.23h-.85v-7.06h.85v3.1h4.04v-3.1h.85v7.06h-.85Z"/>
        <path class="cls-2" d="M178.22,74.73v-6.26l-2.56,6.26h-.74l-2.56-6.26v6.26h-.82v-7.06h1.33l2.43,5.82,2.42-5.82h1.33v7.06h-.82Z"/>
        <path class="cls-2" d="M185.45,74.73l-.7-1.79h-3.39l-.7,1.79h-.88l2.77-7.06h1.03l2.77,7.06h-.88ZM183.05,68.48l-1.48,3.8h2.95l-1.47-3.8Z"/>
        <path class="cls-2" d="M191.13,71.38c.74.19,1.15.7,1.15,1.49v1.14c0,.3.04.55.1.71h-.79c-.09-.19-.16-.41-.16-.71v-1.12c0-.93-.6-1.2-1.41-1.2h-2.11v3.04h-.85v-7.06h3.14c1.41,0,2.18.75,2.18,1.96,0,.91-.43,1.52-1.25,1.76ZM190.1,68.32h-2.2v2.72h2.2c1.01,0,1.42-.56,1.42-1.36s-.41-1.36-1.42-1.36Z"/>
        <path class="cls-2" d="M195.62,71.2c0-2.15,1.14-3.63,3.35-3.63,1.91,0,3.1,1.15,3.1,2.56h-.78c-.13-1.06-.89-1.86-2.31-1.86-1.65,0-2.5,1.06-2.5,2.93s.85,2.93,2.5,2.93c1.4,0,2.18-.75,2.31-1.92h.78c0,1.44-1.14,2.62-3.1,2.62-2.21,0-3.35-1.48-3.35-3.63Z"/>
        <path class="cls-2" d="M207.06,71.38c.74.19,1.15.7,1.15,1.49v1.14c0,.3.04.55.1.71h-.79c-.09-.19-.16-.41-.16-.71v-1.12c0-.93-.6-1.2-1.41-1.2h-2.11v3.04h-.85v-7.06h3.14c1.41,0,2.18.75,2.18,1.96,0,.91-.43,1.52-1.25,1.76ZM206.04,68.32h-2.2v2.72h2.2c1.01,0,1.42-.56,1.42-1.36s-.41-1.36-1.42-1.36Z"/>
        <path class="cls-2" d="M209.07,71.2c0-2.15,1.14-3.63,3.35-3.63s3.36,1.48,3.36,3.63-1.14,3.63-3.36,3.63-3.35-1.48-3.35-3.63ZM214.93,71.2c0-1.87-.85-2.93-2.51-2.93s-2.5,1.06-2.5,2.93.85,2.93,2.5,2.93,2.51-1.06,2.51-2.93Z"/>
        <path class="cls-2" d="M219.65,71.99h-2.09v2.74h-.85v-7.06h2.95c1.45,0,2.38.73,2.38,2.16s-.93,2.16-2.38,2.16ZM219.54,68.32h-1.98v3.02h1.98c1.06,0,1.64-.52,1.64-1.51s-.58-1.51-1.64-1.51Z"/>
        <path class="cls-2" d="M222.94,74.73v-7.06h4.85v.7h-4v2.42h3.68v.67h-3.68v2.56h4v.7h-4.85Z"/>
        <path class="cls-2" d="M233.6,74.73l-2.16-2.94-2.16,2.94h-1.02l2.64-3.6-2.54-3.46h1.02l2.06,2.8,2.06-2.8h1.02l-2.54,3.46,2.64,3.6h-1.02Z"/>
        <path class="cls-2" d="M237.82,74.73v-7.06h.85v6.36h3.58v.7h-4.43Z"/>
        <path class="cls-2" d="M243.64,74.73v-6.36h-2.25v-.7h5.35v.7h-2.24v6.36h-.85Z"/>
        <path class="cls-2" d="M250.18,74.73h-2.67v-7.06h2.67c2.27,0,3.35,1.35,3.35,3.53s-1.08,3.53-3.35,3.53ZM250.21,68.35h-1.85v5.7h1.85c1.65,0,2.47-.97,2.47-2.85s-.82-2.85-2.47-2.85Z"/>
      </g>
      <g>
        <path class="cls-2" d="M47.06,17.05c-1.71-1.71-4.06-2.75-6.67-2.75s-4.96,1.06-6.67,2.76c-1.71,1.7-2.76,4.05-2.76,6.66s1.06,4.96,2.76,6.67c1.71,1.71,4.06,2.76,6.67,2.76s4.96-1.06,6.67-2.75c1.71-1.71,2.76-4.07,2.76-6.67s-1.06-4.96-2.76-6.67h0Z"/>
        <path class="cls-2" d="M75.41,18.84l-14.25-14.25c-2.96-2.96-6.89-4.59-11.08-4.59h-20.15c-4.19,0-8.13,1.63-11.09,4.59l-14.25,14.25C1.64,21.8,0,25.74,0,29.92v20.16c0,4.18,1.64,8.12,4.6,11.08l.28.28.51.51.28.28.89.89.6.61.48.48.75.74.67.67.86.85.82.82,1.29,1.29,1.04,1.05,1.96,1.95h0s1.7,1.72,1.7,1.72l2.11,2.11c.9.9,1.91,1.69,2.97,2.33.46.28.93.54,1.42.76.19.09.38.17.57.25h0c.2.09.39.17.6.25.09.03.18.07.28.1h0c.25.09.51.18.76.24.08.04.17.06.26.08.29.09.59.16.88.22.03.01.05.02.08.02.36.08.71.14,1.08.19.03,0,.06,0,.09,0,.38.05.75.09,1.14.11.32.02.63.03.94.03h20.29c1.06,0,2.1-.12,3.13-.34,2.94-.62,5.64-2.07,7.81-4.25l.23-.23,14.03-14.03c.32-.32.61-.64.89-.97h0c.11-.13.2-.24.3-.37h0c.84-1.06,1.53-2.2,2.06-3.41.09-.19.17-.38.25-.58.07-.17.13-.34.2-.52.05-.16.11-.33.15-.5.06-.16.11-.33.15-.5.03-.08.05-.16.07-.25.07-.25.13-.51.19-.76,0-.04,0-.07.02-.11.06-.28.1-.56.14-.83.03-.2.06-.39.07-.59.07-.56.1-1.12.1-1.7v-20.16c0-4.18-1.63-8.12-4.59-11.08ZM10.67,61.56l-.64-.64c5.79-.53,11.44-.85,16.93-.96.42,0,.83-.02,1.24-.02.51,0,1-.02,1.5-.02.49,0,.97,0,1.45,0,1.1,0,2.19,0,3.28.02.31,0,.63,0,.93.02.21,0,.42,0,.63,0,.78.02,1.56.04,2.33.07.42,0,.82.03,1.24.05.77.03,1.55.06,2.32.11,1.14.06,2.28.13,3.4.22.82.06,1.64.12,2.45.2.66.06,1.3.12,1.95.19.69.07,1.36.15,2.04.23.41.05.82.1,1.23.15-.41.18-.82.36-1.23.54-.83.37-1.66.74-2.47,1.11-2.36-.39-4.77-.71-7.24-.97-1.22-.13-2.45-.24-3.69-.34-.33-.03-.66-.05-.99-.08-.37-.02-.73-.05-1.11-.07-.22-.02-.44-.03-.67-.04-.72-.04-1.46-.08-2.19-.11-.07,0-.14,0-.22,0-.82-.04-1.66-.06-2.5-.08-.09,0-.18,0-.27,0-.39-.02-.78-.02-1.18-.03h-.02c-.32,0-.64,0-.96,0h-.85c-5.42-.04-10.98.11-16.68.48ZM30.31,56.06v-1.73l.13.09.13.07,2.06,1.19v2.49l-.17.1-.16.09-.12.07-1.03-.6v-1.29l-.84-.49ZM32.6,59.07l.66.37.66-.38,1.08.63c-.41,0-.81-.02-1.22-.02-.72,0-1.46,0-2.19,0l1.02-.59ZM33.87,58.16v-2.48l2.07-1.19.12-.07.14-.09v1.77l-.84.49v1.24l-1.03.6-.12-.06-.15-.09-.19-.11ZM35.98,57.87l.18-.11.08.04,2.07,1.19v.77c-.77-.03-1.55-.05-2.33-.07v-1.83ZM36.83,56.89v-.28l2.1-1.2,2.34,1.34-2.34,1.35-2.1-1.21ZM39.56,59l2.06-1.19.13-.07.13-.08v2.25c-.76-.04-1.54-.08-2.32-.1v-.81ZM43.19,58.01v-2.86l.14.08.13.08,2.2,1.27v2.66l-.18.11-2.29-1.34ZM47.02,60.19l.13.07c-.47-.04-.94-.08-1.42-.11l.61-.35.68.39ZM46.99,59.23v-2.65l2.2-1.27.13-.08.15-.08v1.88l-.89.52v1.33l-1.11.63-.13-.07-.16-.09-.19-.11ZM49.25,58.91l.18-.11h0l.07.05h0s2.2,1.28,2.2,1.28v.59c-.81-.1-1.64-.19-2.47-.27v-1.54ZM50.13,57.87v-.29l2.25-1.29,2.49,1.44-2.49,1.44-2.25-1.3ZM53.05,55.15l-2.25-1.3v-.28l2.25-1.3,2.49,1.45-2.49,1.43ZM52.04,49.47l-.89.52v1.32l-1.11.64-.12-.07-.17-.09-.19-.11v-2.65l2.2-1.27.13-.08.15-.08v1.88ZM48.9,48.07l-2.5-1.44,2.5-1.44,2.49,1.44-2.49,1.44ZM48.22,49.02v2.66l-.18.11-2.29-1.34v-2.86l.14.08.14.08,2.19,1.27ZM46.34,52.75l2.48,1.44-2.48,1.44-2.5-1.44,2.5-1.44ZM44.45,52.78l-2.18,1.26-.15-.08v-2.53l2.06-1.19.13-.07.14-.08v2.69ZM41.49,50.54l-2.1-1.21v-.28l2.1-1.21,2.34,1.35-2.34,1.35ZM40.88,51.43v2.53l-.15.08-.15.09-.13.06-1.05-.61-.35-.2v-.13l-.13-.08-.18-.1-.23-.14-.1-.05.16-.1h-.03v-2.48l.18-.11.09.04,2.06,1.19ZM38.76,48.53l-.83.49v1.24l-1.04.6-.12-.06-.15-.09-.18-.11v-2.48l2.06-1.19.12-.07.14-.09v1.77ZM35.82,47.22l-2.34-1.36,2.34-1.35,2.34,1.35-2.34,1.36ZM35.19,48.12v2.49l-.17.1-.16.09-.11.07-1.04-.6v-1.29l-.84-.49v-1.73l.13.09.13.07,2.06,1.19ZM33.25,52.08l2.34,1.36-2.34,1.35-2.34-1.35,2.34-1.36ZM32.25,49.29l-2.11,1.22-2.33-1.36,2.33-1.35,2.11,1.22v.27ZM28.1,50.96l.13-.07.15-.08v1.88l-.89.51v1.33l-1.11.64-.13-.08-.16-.09-.19-.11v-2.65l2.2-1.27ZM27.58,55.36l2.11,1.22v.27l-2.11,1.22-2.33-1.36,2.33-1.35ZM28.2,58.97l2.06-1.19.04-.03.22.13v1.51l-.5.29c-.61,0-1.21,0-1.83.03v-.73ZM11.63,62.51l-.68-.67c5.94-.36,11.68-.49,17.23-.37h0c.1,0,.2,0,.29,0,.62,0,1.21.03,1.82.05h.16c.31.01.62.02.92.04,1.17.04,2.32.09,3.46.16.46.03.91.06,1.36.09v.03h.45c4.07.28,8.02.71,11.85,1.31-1.12.52-2.23,1.04-3.35,1.58-6.36-1.24-13.1-2.02-19.88-2.22-4.48-.15-9.01-.15-13.65,0ZM12.79,63.67l-.74-.75c4.95-.11,9.8-.04,14.57.19,5.92.29,11.95.94,17.72,2.04-.67.32-1.33.65-1.99.97-.39.19-.75.39-1.14.58-8.78-1.99-18.32-2.94-28.42-3.02ZM14.28,65.17l-.97-.97c3.39.05,6.7.2,9.93.46,5.84.46,11.62,1.24,17.12,2.47-1.03.54-2.07,1.06-3.11,1.61-7.08-1.95-14.78-3.1-22.97-3.56ZM16.19,67.08l-1.15-1.15c1.4.09,2.78.21,4.15.34,5.99.6,11.74,1.53,17.13,2.98-.95.52-1.91,1.03-2.85,1.56-5.4-1.76-11.18-2.97-17.28-3.72ZM19.01,69.89l-1.87-1.87c5.34.75,10.42,1.87,15.19,3.39-.93.53-1.85,1.06-2.76,1.6-3.37-1.26-6.88-2.3-10.55-3.12h0ZM25.85,75.24h0c-1.54-.57-2.96-1.47-4.15-2.67l-1.34-1.34c2.75.71,5.41,1.54,7.96,2.52-.82.49-1.65.99-2.46,1.49ZM58.32,72.56l-.03.03s0,0,0,0c-2.17,1.05-4.32,2.12-6.42,3.24h0c-.35.06-.69.1-1.04.12,2.79-1.52,5.64-2.99,8.54-4.42l-1.02,1.02ZM61.57,69.32c-4.57,2.11-9,4.35-13.3,6.66h-.86c1.58-.87,3.17-1.74,4.78-2.59,3.49-1.85,7.05-3.63,10.67-5.36l-1.29,1.29ZM64.57,66.31s0,0,0,0c-6.73,3.02-13.17,6.25-19.33,9.66h-1.22c7.12-4.08,14.58-7.96,22.42-11.53l-1.87,1.87ZM67.31,63.58s0,0,0,0c-8.9,3.79-17.33,7.92-25.29,12.39h-1.47c8.08-4.74,16.61-9.18,25.53-13.35.18,0,.18-.12.08-.11-9.56,4.13-18.63,8.62-27.17,13.46h-3.42c11.15-6.52,23.39-12.38,36.65-17.29l-4.89,4.89ZM73,57.87c-14.24,5.13-27.11,11.27-38.78,18.11h-.21c11.88-7.08,25.01-13.41,39.46-18.68-.15.2-.31.39-.47.58ZM73.95,56.65c-4.93,1.77-9.68,3.66-14.26,5.66-9.58,4.17-18.56,8.71-26.98,13.67h-.27c12.52-7.59,26.36-14.37,41.89-19.91-.12.2-.25.4-.38.59ZM74.53,55.72c-16.12,5.57-30.38,12.45-43.3,20.26h-.46c13.17-8.09,27.79-15.15,44.13-20.99-.12.25-.25.5-.38.72ZM74.98,54.82h0c-16.87,5.82-31.83,12.96-45.29,21.16-.17,0-.34,0-.51-.02,9.77-6.06,20.33-11.54,31.62-16.52-11.66,4.86-22.46,10.35-32.41,16.43-.24-.02-.47-.06-.69-.11,14.05-8.45,29.74-16.12,47.69-22-.11.36-.25.71-.41,1.05ZM75.99,50.08c0,1.01-.13,2.01-.39,2.98-2.85.85-4.68,1.43-4.68,1.43-.13.03-.26.07-.38.1-.07.02-.13.04-.2.06-.38.06-7.18,2.43-7.45,2.47-1.95.73-3.86,1.5-5.76,2.28.04,0,.07,0,.07,0,0,0-.11.03-.29.08-.66.27-1.31.54-1.97.81v.24h0s0-.23,0-.23c-.49.21-.96.42-1.45.62-.15-.02-.3-.04-.45-.05v-.75l2.48-1.34c.06-.11.11-.23.15-.35.04-.07.06-.16.08-.23.07-.16.12-.33.16-.52.02-.09.04-.18.06-.27.06-.32.09-.65.09-.99v-10.12c0-2.87-1.17-5.47-3.06-7.36-1.9-1.9-4.5-3.07-7.37-3.07h-10.5c-2.87,0-5.48,1.18-7.37,3.07-1.9,1.89-3.07,4.49-3.07,7.36v10.12c0,.16,0,.29.02.44h0s0,.06,0,.09c0,.15.03.3.06.43,0,.08.02.14.04.2,0,.05.02.1.03.13v.04s0,0,0,0h.02s2.06,1.2,2.06,1.2v.75c-5.54.12-11.24.47-17.1,1.02l-2.42-2.42c-2.2-2.2-3.41-5.13-3.41-8.24v-20.16c0-3.11,1.21-6.04,3.41-8.24l14.25-14.24c2.19-2.2,5.12-3.41,8.24-3.41h20.15c3.12,0,6.04,1.21,8.24,3.41l14.25,14.24c2.19,2.2,3.41,5.13,3.41,8.24v20.16Z"/>
      </g>
    </g>
  </g>
</svg>